<mxfile host="app.diagrams.net" modified="2024-05-29T01:38:02.211Z" agent="Mozilla/5.0 (Windows NT 10.0; Win64; x64) AppleWebKit/537.36 (KHTML, like Gecko) Chrome/125.0.0.0 Safari/537.36" etag="GSubCdFbRATe_4jj4sxr" version="24.4.9" type="github" pages="2">
  <diagram name="페이지-1" id="rXjV9oA5GPwzh6Ie6DMi">
    <mxGraphModel dx="2150" dy="1932" grid="1" gridSize="10" guides="1" tooltips="1" connect="1" arrows="1" fold="1" page="1" pageScale="1" pageWidth="827" pageHeight="1169" math="0" shadow="0">
      <root>
        <mxCell id="0" />
        <mxCell id="1" parent="0" />
        <mxCell id="aWSQjB3wzfDvAkZCwHmx-1" value="&lt;font style=&quot;font-size: 28px;&quot;&gt;교수&lt;/font&gt;" style="rounded=0;whiteSpace=wrap;html=1;" vertex="1" parent="1">
          <mxGeometry x="110" y="100" width="120" height="60" as="geometry" />
        </mxCell>
        <mxCell id="aWSQjB3wzfDvAkZCwHmx-2" value="&lt;font style=&quot;font-size: 28px;&quot;&gt;과목&lt;/font&gt;" style="rounded=0;whiteSpace=wrap;html=1;" vertex="1" parent="1">
          <mxGeometry x="110" y="360" width="120" height="60" as="geometry" />
        </mxCell>
        <mxCell id="aWSQjB3wzfDvAkZCwHmx-3" value="&lt;span style=&quot;font-size: 28px;&quot;&gt;학생&lt;/span&gt;" style="rounded=0;whiteSpace=wrap;html=1;" vertex="1" parent="1">
          <mxGeometry x="560" y="360" width="120" height="60" as="geometry" />
        </mxCell>
        <mxCell id="aWSQjB3wzfDvAkZCwHmx-4" value="&lt;font style=&quot;font-size: 28px;&quot;&gt;학과&lt;/font&gt;" style="rounded=0;whiteSpace=wrap;html=1;" vertex="1" parent="1">
          <mxGeometry x="560" y="100" width="120" height="60" as="geometry" />
        </mxCell>
        <mxCell id="aWSQjB3wzfDvAkZCwHmx-7" value="&lt;font style=&quot;font-size: 18px;&quot;&gt;&lt;u&gt;학과 코드&lt;/u&gt;&lt;/font&gt;" style="ellipse;whiteSpace=wrap;html=1;" vertex="1" parent="1">
          <mxGeometry x="780" y="30" width="120" height="80" as="geometry" />
        </mxCell>
        <mxCell id="aWSQjB3wzfDvAkZCwHmx-8" value="&lt;font style=&quot;font-size: 18px;&quot;&gt;학과명&lt;/font&gt;" style="ellipse;whiteSpace=wrap;html=1;" vertex="1" parent="1">
          <mxGeometry x="780" y="130" width="120" height="80" as="geometry" />
        </mxCell>
        <mxCell id="aWSQjB3wzfDvAkZCwHmx-10" value="" style="endArrow=none;html=1;rounded=0;exitX=1;exitY=0;exitDx=0;exitDy=0;" edge="1" parent="1" source="aWSQjB3wzfDvAkZCwHmx-4" target="aWSQjB3wzfDvAkZCwHmx-7">
          <mxGeometry width="50" height="50" relative="1" as="geometry">
            <mxPoint x="540" y="180" as="sourcePoint" />
            <mxPoint x="590" y="130" as="targetPoint" />
          </mxGeometry>
        </mxCell>
        <mxCell id="aWSQjB3wzfDvAkZCwHmx-11" value="" style="endArrow=none;html=1;rounded=0;exitX=1;exitY=0;exitDx=0;exitDy=0;" edge="1" parent="1" source="aWSQjB3wzfDvAkZCwHmx-4" target="aWSQjB3wzfDvAkZCwHmx-8">
          <mxGeometry width="50" height="50" relative="1" as="geometry">
            <mxPoint x="690" y="110" as="sourcePoint" />
            <mxPoint x="724" y="29" as="targetPoint" />
          </mxGeometry>
        </mxCell>
        <mxCell id="aWSQjB3wzfDvAkZCwHmx-12" value="&lt;font style=&quot;font-size: 18px;&quot;&gt;&lt;u&gt;교수 코드&lt;/u&gt;&lt;/font&gt;" style="ellipse;whiteSpace=wrap;html=1;" vertex="1" parent="1">
          <mxGeometry x="60" y="-70" width="120" height="80" as="geometry" />
        </mxCell>
        <mxCell id="aWSQjB3wzfDvAkZCwHmx-13" value="&lt;span style=&quot;font-size: 18px;&quot;&gt;교수 이름&lt;/span&gt;" style="ellipse;whiteSpace=wrap;html=1;" vertex="1" parent="1">
          <mxGeometry x="-130" y="50" width="120" height="80" as="geometry" />
        </mxCell>
        <mxCell id="aWSQjB3wzfDvAkZCwHmx-14" value="" style="endArrow=none;html=1;rounded=0;exitX=0;exitY=0;exitDx=0;exitDy=0;" edge="1" parent="1" source="aWSQjB3wzfDvAkZCwHmx-1" target="aWSQjB3wzfDvAkZCwHmx-12">
          <mxGeometry width="50" height="50" relative="1" as="geometry">
            <mxPoint x="-40" y="200" as="sourcePoint" />
            <mxPoint x="10" y="150" as="targetPoint" />
          </mxGeometry>
        </mxCell>
        <mxCell id="aWSQjB3wzfDvAkZCwHmx-15" value="" style="endArrow=none;html=1;rounded=0;exitX=0;exitY=0;exitDx=0;exitDy=0;" edge="1" parent="1" source="aWSQjB3wzfDvAkZCwHmx-1" target="aWSQjB3wzfDvAkZCwHmx-13">
          <mxGeometry width="50" height="50" relative="1" as="geometry">
            <mxPoint x="120" y="110" as="sourcePoint" />
            <mxPoint x="127" y="20" as="targetPoint" />
          </mxGeometry>
        </mxCell>
        <mxCell id="aWSQjB3wzfDvAkZCwHmx-16" value="&lt;span style=&quot;font-size: 18px;&quot;&gt;&lt;u&gt;학번&lt;/u&gt;&lt;/span&gt;" style="ellipse;whiteSpace=wrap;html=1;" vertex="1" parent="1">
          <mxGeometry x="770" y="320" width="120" height="80" as="geometry" />
        </mxCell>
        <mxCell id="aWSQjB3wzfDvAkZCwHmx-17" value="&lt;font style=&quot;font-size: 18px;&quot;&gt;키&lt;/font&gt;" style="ellipse;whiteSpace=wrap;html=1;" vertex="1" parent="1">
          <mxGeometry x="740" y="450" width="120" height="80" as="geometry" />
        </mxCell>
        <mxCell id="aWSQjB3wzfDvAkZCwHmx-18" value="&lt;span style=&quot;font-size: 18px;&quot;&gt;이름&lt;/span&gt;" style="ellipse;whiteSpace=wrap;html=1;" vertex="1" parent="1">
          <mxGeometry x="560" y="480" width="120" height="80" as="geometry" />
        </mxCell>
        <mxCell id="aWSQjB3wzfDvAkZCwHmx-19" value="" style="endArrow=none;html=1;rounded=0;" edge="1" parent="1" target="aWSQjB3wzfDvAkZCwHmx-16">
          <mxGeometry width="50" height="50" relative="1" as="geometry">
            <mxPoint x="680" y="420" as="sourcePoint" />
            <mxPoint x="620" y="330" as="targetPoint" />
          </mxGeometry>
        </mxCell>
        <mxCell id="aWSQjB3wzfDvAkZCwHmx-20" value="" style="endArrow=none;html=1;rounded=0;exitX=1;exitY=1;exitDx=0;exitDy=0;" edge="1" parent="1" source="aWSQjB3wzfDvAkZCwHmx-3" target="aWSQjB3wzfDvAkZCwHmx-17">
          <mxGeometry width="50" height="50" relative="1" as="geometry">
            <mxPoint x="693" y="424" as="sourcePoint" />
            <mxPoint x="787" y="389" as="targetPoint" />
          </mxGeometry>
        </mxCell>
        <mxCell id="aWSQjB3wzfDvAkZCwHmx-21" value="" style="endArrow=none;html=1;rounded=0;exitX=0.5;exitY=1;exitDx=0;exitDy=0;" edge="1" parent="1" source="aWSQjB3wzfDvAkZCwHmx-3" target="aWSQjB3wzfDvAkZCwHmx-18">
          <mxGeometry width="50" height="50" relative="1" as="geometry">
            <mxPoint x="703" y="434" as="sourcePoint" />
            <mxPoint x="797" y="399" as="targetPoint" />
          </mxGeometry>
        </mxCell>
        <mxCell id="aWSQjB3wzfDvAkZCwHmx-22" value="&lt;span style=&quot;font-size: 18px;&quot;&gt;시작일&lt;/span&gt;" style="ellipse;whiteSpace=wrap;html=1;" vertex="1" parent="1">
          <mxGeometry x="10" y="490" width="120" height="80" as="geometry" />
        </mxCell>
        <mxCell id="aWSQjB3wzfDvAkZCwHmx-24" value="&lt;span style=&quot;font-size: 18px;&quot;&gt;과목명&lt;/span&gt;" style="ellipse;whiteSpace=wrap;html=1;" vertex="1" parent="1">
          <mxGeometry x="-120" y="430" width="120" height="80" as="geometry" />
        </mxCell>
        <mxCell id="aWSQjB3wzfDvAkZCwHmx-25" value="&lt;span style=&quot;font-size: 18px;&quot;&gt;&lt;u&gt;과목 코드&lt;/u&gt;&lt;/span&gt;" style="ellipse;whiteSpace=wrap;html=1;" vertex="1" parent="1">
          <mxGeometry x="-120" y="320" width="120" height="80" as="geometry" />
        </mxCell>
        <mxCell id="aWSQjB3wzfDvAkZCwHmx-26" value="&lt;span style=&quot;font-size: 18px;&quot;&gt;종료일&lt;/span&gt;" style="ellipse;whiteSpace=wrap;html=1;" vertex="1" parent="1">
          <mxGeometry x="160" y="490" width="120" height="80" as="geometry" />
        </mxCell>
        <mxCell id="aWSQjB3wzfDvAkZCwHmx-27" value="" style="endArrow=none;html=1;rounded=0;exitX=0;exitY=1;exitDx=0;exitDy=0;" edge="1" parent="1" source="aWSQjB3wzfDvAkZCwHmx-2" target="aWSQjB3wzfDvAkZCwHmx-25">
          <mxGeometry width="50" height="50" relative="1" as="geometry">
            <mxPoint x="230" y="470" as="sourcePoint" />
            <mxPoint x="280" y="420" as="targetPoint" />
          </mxGeometry>
        </mxCell>
        <mxCell id="aWSQjB3wzfDvAkZCwHmx-28" value="" style="endArrow=none;html=1;rounded=0;exitX=0;exitY=1;exitDx=0;exitDy=0;" edge="1" parent="1" source="aWSQjB3wzfDvAkZCwHmx-2" target="aWSQjB3wzfDvAkZCwHmx-24">
          <mxGeometry width="50" height="50" relative="1" as="geometry">
            <mxPoint x="120" y="430" as="sourcePoint" />
            <mxPoint x="56" y="414" as="targetPoint" />
          </mxGeometry>
        </mxCell>
        <mxCell id="aWSQjB3wzfDvAkZCwHmx-29" value="" style="endArrow=none;html=1;rounded=0;entryX=0.5;entryY=1;entryDx=0;entryDy=0;" edge="1" parent="1" source="aWSQjB3wzfDvAkZCwHmx-22" target="aWSQjB3wzfDvAkZCwHmx-2">
          <mxGeometry width="50" height="50" relative="1" as="geometry">
            <mxPoint x="130" y="440" as="sourcePoint" />
            <mxPoint x="66" y="424" as="targetPoint" />
          </mxGeometry>
        </mxCell>
        <mxCell id="aWSQjB3wzfDvAkZCwHmx-30" value="" style="endArrow=none;html=1;rounded=0;entryX=0.5;entryY=1;entryDx=0;entryDy=0;" edge="1" parent="1" source="aWSQjB3wzfDvAkZCwHmx-26" target="aWSQjB3wzfDvAkZCwHmx-2">
          <mxGeometry width="50" height="50" relative="1" as="geometry">
            <mxPoint x="140" y="450" as="sourcePoint" />
            <mxPoint x="76" y="434" as="targetPoint" />
          </mxGeometry>
        </mxCell>
        <mxCell id="aWSQjB3wzfDvAkZCwHmx-31" value="&lt;font style=&quot;font-size: 25px;&quot;&gt;소속&lt;/font&gt;" style="rhombus;whiteSpace=wrap;html=1;" vertex="1" parent="1">
          <mxGeometry x="555" y="220" width="130" height="80" as="geometry" />
        </mxCell>
        <mxCell id="aWSQjB3wzfDvAkZCwHmx-32" value="&lt;font style=&quot;font-size: 25px;&quot;&gt;소속&lt;/font&gt;" style="rhombus;whiteSpace=wrap;html=1;" vertex="1" parent="1">
          <mxGeometry x="330" y="90" width="130" height="80" as="geometry" />
        </mxCell>
        <mxCell id="aWSQjB3wzfDvAkZCwHmx-33" value="" style="endArrow=none;html=1;rounded=0;" edge="1" parent="1" source="aWSQjB3wzfDvAkZCwHmx-1" target="aWSQjB3wzfDvAkZCwHmx-32">
          <mxGeometry width="50" height="50" relative="1" as="geometry">
            <mxPoint x="120" y="110" as="sourcePoint" />
            <mxPoint x="127" y="20" as="targetPoint" />
          </mxGeometry>
        </mxCell>
        <mxCell id="aWSQjB3wzfDvAkZCwHmx-36" value="N" style="edgeLabel;html=1;align=center;verticalAlign=middle;resizable=0;points=[];" vertex="1" connectable="0" parent="aWSQjB3wzfDvAkZCwHmx-33">
          <mxGeometry x="0.5369" relative="1" as="geometry">
            <mxPoint x="14" y="-10" as="offset" />
          </mxGeometry>
        </mxCell>
        <mxCell id="aWSQjB3wzfDvAkZCwHmx-34" value="" style="endArrow=none;html=1;rounded=0;" edge="1" parent="1" source="aWSQjB3wzfDvAkZCwHmx-32" target="aWSQjB3wzfDvAkZCwHmx-4">
          <mxGeometry width="50" height="50" relative="1" as="geometry">
            <mxPoint x="450" y="305" as="sourcePoint" />
            <mxPoint x="457" y="215" as="targetPoint" />
          </mxGeometry>
        </mxCell>
        <mxCell id="aWSQjB3wzfDvAkZCwHmx-35" value="1" style="edgeLabel;html=1;align=center;verticalAlign=middle;resizable=0;points=[];" vertex="1" connectable="0" parent="aWSQjB3wzfDvAkZCwHmx-34">
          <mxGeometry x="0.2427" y="-1" relative="1" as="geometry">
            <mxPoint x="-52" y="-11" as="offset" />
          </mxGeometry>
        </mxCell>
        <mxCell id="aWSQjB3wzfDvAkZCwHmx-37" value="" style="endArrow=none;html=1;rounded=0;" edge="1" parent="1" source="aWSQjB3wzfDvAkZCwHmx-31" target="aWSQjB3wzfDvAkZCwHmx-4">
          <mxGeometry width="50" height="50" relative="1" as="geometry">
            <mxPoint x="500" y="270" as="sourcePoint" />
            <mxPoint x="550" y="220" as="targetPoint" />
          </mxGeometry>
        </mxCell>
        <mxCell id="aWSQjB3wzfDvAkZCwHmx-40" value="1" style="edgeLabel;html=1;align=center;verticalAlign=middle;resizable=0;points=[];" vertex="1" connectable="0" parent="aWSQjB3wzfDvAkZCwHmx-37">
          <mxGeometry x="0.5426" y="4" relative="1" as="geometry">
            <mxPoint x="14" y="36" as="offset" />
          </mxGeometry>
        </mxCell>
        <mxCell id="aWSQjB3wzfDvAkZCwHmx-38" value="" style="endArrow=none;html=1;rounded=0;" edge="1" parent="1" source="aWSQjB3wzfDvAkZCwHmx-31" target="aWSQjB3wzfDvAkZCwHmx-3">
          <mxGeometry width="50" height="50" relative="1" as="geometry">
            <mxPoint x="630" y="230" as="sourcePoint" />
            <mxPoint x="630" y="170" as="targetPoint" />
          </mxGeometry>
        </mxCell>
        <mxCell id="aWSQjB3wzfDvAkZCwHmx-39" value="N" style="edgeLabel;html=1;align=center;verticalAlign=middle;resizable=0;points=[];" vertex="1" connectable="0" parent="aWSQjB3wzfDvAkZCwHmx-38">
          <mxGeometry x="-0.0981" y="5" relative="1" as="geometry">
            <mxPoint x="5" y="-17" as="offset" />
          </mxGeometry>
        </mxCell>
        <mxCell id="aWSQjB3wzfDvAkZCwHmx-41" value="&lt;font style=&quot;font-size: 25px;&quot;&gt;강의&lt;/font&gt;" style="rhombus;whiteSpace=wrap;html=1;" vertex="1" parent="1">
          <mxGeometry x="105" y="220" width="130" height="80" as="geometry" />
        </mxCell>
        <mxCell id="aWSQjB3wzfDvAkZCwHmx-42" value="&lt;font style=&quot;font-size: 25px;&quot;&gt;수강&lt;/font&gt;" style="rhombus;whiteSpace=wrap;html=1;" vertex="1" parent="1">
          <mxGeometry x="330" y="350" width="130" height="80" as="geometry" />
        </mxCell>
        <mxCell id="aWSQjB3wzfDvAkZCwHmx-43" value="" style="endArrow=none;html=1;rounded=0;" edge="1" parent="1" source="aWSQjB3wzfDvAkZCwHmx-41" target="aWSQjB3wzfDvAkZCwHmx-1">
          <mxGeometry width="50" height="50" relative="1" as="geometry">
            <mxPoint x="270" y="310" as="sourcePoint" />
            <mxPoint x="320" y="260" as="targetPoint" />
          </mxGeometry>
        </mxCell>
        <mxCell id="aWSQjB3wzfDvAkZCwHmx-55" value="N" style="edgeLabel;html=1;align=center;verticalAlign=middle;resizable=0;points=[];" vertex="1" connectable="0" parent="aWSQjB3wzfDvAkZCwHmx-43">
          <mxGeometry x="-0.2778" y="-5" relative="1" as="geometry">
            <mxPoint x="5" y="12" as="offset" />
          </mxGeometry>
        </mxCell>
        <mxCell id="aWSQjB3wzfDvAkZCwHmx-44" value="" style="endArrow=none;html=1;rounded=0;" edge="1" parent="1" source="aWSQjB3wzfDvAkZCwHmx-41" target="aWSQjB3wzfDvAkZCwHmx-2">
          <mxGeometry width="50" height="50" relative="1" as="geometry">
            <mxPoint x="180" y="230" as="sourcePoint" />
            <mxPoint x="180" y="170" as="targetPoint" />
          </mxGeometry>
        </mxCell>
        <mxCell id="aWSQjB3wzfDvAkZCwHmx-54" value="1" style="edgeLabel;html=1;align=center;verticalAlign=middle;resizable=0;points=[];" vertex="1" connectable="0" parent="aWSQjB3wzfDvAkZCwHmx-44">
          <mxGeometry x="-0.427" y="-4" relative="1" as="geometry">
            <mxPoint x="14" y="-7" as="offset" />
          </mxGeometry>
        </mxCell>
        <mxCell id="aWSQjB3wzfDvAkZCwHmx-45" value="" style="endArrow=none;html=1;rounded=0;" edge="1" parent="1" source="aWSQjB3wzfDvAkZCwHmx-2" target="aWSQjB3wzfDvAkZCwHmx-42">
          <mxGeometry width="50" height="50" relative="1" as="geometry">
            <mxPoint x="190" y="240" as="sourcePoint" />
            <mxPoint x="190" y="180" as="targetPoint" />
          </mxGeometry>
        </mxCell>
        <mxCell id="aWSQjB3wzfDvAkZCwHmx-53" value="N" style="edgeLabel;html=1;align=center;verticalAlign=middle;resizable=0;points=[];" vertex="1" connectable="0" parent="aWSQjB3wzfDvAkZCwHmx-45">
          <mxGeometry x="0.42" y="6" relative="1" as="geometry">
            <mxPoint x="19" y="-4" as="offset" />
          </mxGeometry>
        </mxCell>
        <mxCell id="aWSQjB3wzfDvAkZCwHmx-46" value="" style="endArrow=none;html=1;rounded=0;" edge="1" parent="1" source="aWSQjB3wzfDvAkZCwHmx-42" target="aWSQjB3wzfDvAkZCwHmx-3">
          <mxGeometry width="50" height="50" relative="1" as="geometry">
            <mxPoint x="200" y="250" as="sourcePoint" />
            <mxPoint x="200" y="190" as="targetPoint" />
          </mxGeometry>
        </mxCell>
        <mxCell id="aWSQjB3wzfDvAkZCwHmx-52" value="M" style="edgeLabel;html=1;align=center;verticalAlign=middle;resizable=0;points=[];" vertex="1" connectable="0" parent="aWSQjB3wzfDvAkZCwHmx-46">
          <mxGeometry x="-0.62" y="1" relative="1" as="geometry">
            <mxPoint x="-9" y="-9" as="offset" />
          </mxGeometry>
        </mxCell>
        <mxCell id="aWSQjB3wzfDvAkZCwHmx-48" value="&lt;span style=&quot;font-size: 18px;&quot;&gt;수강일자&lt;/span&gt;" style="ellipse;whiteSpace=wrap;html=1;" vertex="1" parent="1">
          <mxGeometry x="294" y="470" width="120" height="80" as="geometry" />
        </mxCell>
        <mxCell id="aWSQjB3wzfDvAkZCwHmx-49" value="&lt;span style=&quot;font-size: 18px;&quot;&gt;&lt;u&gt;수강번호&lt;/u&gt;&lt;/span&gt;" style="ellipse;whiteSpace=wrap;html=1;" vertex="1" parent="1">
          <mxGeometry x="420" y="470" width="120" height="80" as="geometry" />
        </mxCell>
        <mxCell id="aWSQjB3wzfDvAkZCwHmx-50" value="" style="endArrow=none;html=1;rounded=0;exitX=0.5;exitY=1;exitDx=0;exitDy=0;" edge="1" parent="1" source="aWSQjB3wzfDvAkZCwHmx-42" target="aWSQjB3wzfDvAkZCwHmx-49">
          <mxGeometry width="50" height="50" relative="1" as="geometry">
            <mxPoint x="470" y="400" as="sourcePoint" />
            <mxPoint x="570" y="400" as="targetPoint" />
          </mxGeometry>
        </mxCell>
        <mxCell id="aWSQjB3wzfDvAkZCwHmx-51" value="" style="endArrow=none;html=1;rounded=0;entryX=0.5;entryY=1;entryDx=0;entryDy=0;" edge="1" parent="1" source="aWSQjB3wzfDvAkZCwHmx-48" target="aWSQjB3wzfDvAkZCwHmx-42">
          <mxGeometry width="50" height="50" relative="1" as="geometry">
            <mxPoint x="480" y="410" as="sourcePoint" />
            <mxPoint x="580" y="410" as="targetPoint" />
          </mxGeometry>
        </mxCell>
        <mxCell id="aWSQjB3wzfDvAkZCwHmx-57" value="&lt;span style=&quot;font-size: 18px;&quot;&gt;학점&lt;/span&gt;" style="ellipse;whiteSpace=wrap;html=1;" vertex="1" parent="1">
          <mxGeometry x="335" y="230" width="120" height="80" as="geometry" />
        </mxCell>
        <mxCell id="aWSQjB3wzfDvAkZCwHmx-58" value="" style="endArrow=none;html=1;rounded=0;exitX=0.5;exitY=0;exitDx=0;exitDy=0;" edge="1" parent="1" source="aWSQjB3wzfDvAkZCwHmx-42" target="aWSQjB3wzfDvAkZCwHmx-57">
          <mxGeometry width="50" height="50" relative="1" as="geometry">
            <mxPoint x="405" y="440" as="sourcePoint" />
            <mxPoint x="455" y="487" as="targetPoint" />
          </mxGeometry>
        </mxCell>
      </root>
    </mxGraphModel>
  </diagram>
  <diagram id="O3R50qTHckT0L1bAhzFm" name="페이지-2">
    <mxGraphModel dx="794" dy="458" grid="1" gridSize="10" guides="1" tooltips="1" connect="1" arrows="1" fold="1" page="1" pageScale="1" pageWidth="827" pageHeight="1169" math="0" shadow="0">
      <root>
        <mxCell id="0" />
        <mxCell id="1" parent="0" />
        <mxCell id="Z4l7oAfXVn5_fqK4r49j-1" value="학과" style="shape=table;startSize=30;container=1;collapsible=1;childLayout=tableLayout;fixedRows=1;rowLines=0;fontStyle=1;align=center;resizeLast=1;html=1;" vertex="1" parent="1">
          <mxGeometry x="70" y="160" width="180" height="90" as="geometry" />
        </mxCell>
        <mxCell id="Z4l7oAfXVn5_fqK4r49j-2" value="" style="shape=tableRow;horizontal=0;startSize=0;swimlaneHead=0;swimlaneBody=0;fillColor=none;collapsible=0;dropTarget=0;points=[[0,0.5],[1,0.5]];portConstraint=eastwest;top=0;left=0;right=0;bottom=1;" vertex="1" parent="Z4l7oAfXVn5_fqK4r49j-1">
          <mxGeometry y="30" width="180" height="30" as="geometry" />
        </mxCell>
        <mxCell id="Z4l7oAfXVn5_fqK4r49j-3" value="PK" style="shape=partialRectangle;connectable=0;fillColor=none;top=0;left=0;bottom=0;right=0;fontStyle=1;overflow=hidden;whiteSpace=wrap;html=1;" vertex="1" parent="Z4l7oAfXVn5_fqK4r49j-2">
          <mxGeometry width="30" height="30" as="geometry">
            <mxRectangle width="30" height="30" as="alternateBounds" />
          </mxGeometry>
        </mxCell>
        <mxCell id="Z4l7oAfXVn5_fqK4r49j-4" value="학과코드" style="shape=partialRectangle;connectable=0;fillColor=none;top=0;left=0;bottom=0;right=0;align=left;spacingLeft=6;fontStyle=5;overflow=hidden;whiteSpace=wrap;html=1;" vertex="1" parent="Z4l7oAfXVn5_fqK4r49j-2">
          <mxGeometry x="30" width="150" height="30" as="geometry">
            <mxRectangle width="150" height="30" as="alternateBounds" />
          </mxGeometry>
        </mxCell>
        <mxCell id="Z4l7oAfXVn5_fqK4r49j-5" value="" style="shape=tableRow;horizontal=0;startSize=0;swimlaneHead=0;swimlaneBody=0;fillColor=none;collapsible=0;dropTarget=0;points=[[0,0.5],[1,0.5]];portConstraint=eastwest;top=0;left=0;right=0;bottom=0;" vertex="1" parent="Z4l7oAfXVn5_fqK4r49j-1">
          <mxGeometry y="60" width="180" height="30" as="geometry" />
        </mxCell>
        <mxCell id="Z4l7oAfXVn5_fqK4r49j-6" value="" style="shape=partialRectangle;connectable=0;fillColor=none;top=0;left=0;bottom=0;right=0;editable=1;overflow=hidden;whiteSpace=wrap;html=1;" vertex="1" parent="Z4l7oAfXVn5_fqK4r49j-5">
          <mxGeometry width="30" height="30" as="geometry">
            <mxRectangle width="30" height="30" as="alternateBounds" />
          </mxGeometry>
        </mxCell>
        <mxCell id="Z4l7oAfXVn5_fqK4r49j-7" value="학과명" style="shape=partialRectangle;connectable=0;fillColor=none;top=0;left=0;bottom=0;right=0;align=left;spacingLeft=6;overflow=hidden;whiteSpace=wrap;html=1;" vertex="1" parent="Z4l7oAfXVn5_fqK4r49j-5">
          <mxGeometry x="30" width="150" height="30" as="geometry">
            <mxRectangle width="150" height="30" as="alternateBounds" />
          </mxGeometry>
        </mxCell>
        <mxCell id="LFf5BjODRrcRlvRY0vxa-1" value="학생" style="shape=table;startSize=30;container=1;collapsible=1;childLayout=tableLayout;fixedRows=1;rowLines=0;fontStyle=1;align=center;resizeLast=1;html=1;" vertex="1" parent="1">
          <mxGeometry x="340" y="50" width="180" height="150" as="geometry" />
        </mxCell>
        <mxCell id="LFf5BjODRrcRlvRY0vxa-2" value="" style="shape=tableRow;horizontal=0;startSize=0;swimlaneHead=0;swimlaneBody=0;fillColor=none;collapsible=0;dropTarget=0;points=[[0,0.5],[1,0.5]];portConstraint=eastwest;top=0;left=0;right=0;bottom=1;" vertex="1" parent="LFf5BjODRrcRlvRY0vxa-1">
          <mxGeometry y="30" width="180" height="30" as="geometry" />
        </mxCell>
        <mxCell id="LFf5BjODRrcRlvRY0vxa-3" value="PK" style="shape=partialRectangle;connectable=0;fillColor=none;top=0;left=0;bottom=0;right=0;fontStyle=1;overflow=hidden;whiteSpace=wrap;html=1;" vertex="1" parent="LFf5BjODRrcRlvRY0vxa-2">
          <mxGeometry width="30" height="30" as="geometry">
            <mxRectangle width="30" height="30" as="alternateBounds" />
          </mxGeometry>
        </mxCell>
        <mxCell id="LFf5BjODRrcRlvRY0vxa-4" value="학번" style="shape=partialRectangle;connectable=0;fillColor=none;top=0;left=0;bottom=0;right=0;align=left;spacingLeft=6;fontStyle=5;overflow=hidden;whiteSpace=wrap;html=1;" vertex="1" parent="LFf5BjODRrcRlvRY0vxa-2">
          <mxGeometry x="30" width="150" height="30" as="geometry">
            <mxRectangle width="150" height="30" as="alternateBounds" />
          </mxGeometry>
        </mxCell>
        <mxCell id="LFf5BjODRrcRlvRY0vxa-5" value="" style="shape=tableRow;horizontal=0;startSize=0;swimlaneHead=0;swimlaneBody=0;fillColor=none;collapsible=0;dropTarget=0;points=[[0,0.5],[1,0.5]];portConstraint=eastwest;top=0;left=0;right=0;bottom=0;" vertex="1" parent="LFf5BjODRrcRlvRY0vxa-1">
          <mxGeometry y="60" width="180" height="30" as="geometry" />
        </mxCell>
        <mxCell id="LFf5BjODRrcRlvRY0vxa-6" value="" style="shape=partialRectangle;connectable=0;fillColor=none;top=0;left=0;bottom=0;right=0;editable=1;overflow=hidden;whiteSpace=wrap;html=1;" vertex="1" parent="LFf5BjODRrcRlvRY0vxa-5">
          <mxGeometry width="30" height="30" as="geometry">
            <mxRectangle width="30" height="30" as="alternateBounds" />
          </mxGeometry>
        </mxCell>
        <mxCell id="LFf5BjODRrcRlvRY0vxa-7" value="이름" style="shape=partialRectangle;connectable=0;fillColor=none;top=0;left=0;bottom=0;right=0;align=left;spacingLeft=6;overflow=hidden;whiteSpace=wrap;html=1;" vertex="1" parent="LFf5BjODRrcRlvRY0vxa-5">
          <mxGeometry x="30" width="150" height="30" as="geometry">
            <mxRectangle width="150" height="30" as="alternateBounds" />
          </mxGeometry>
        </mxCell>
        <mxCell id="LFf5BjODRrcRlvRY0vxa-8" value="" style="shape=tableRow;horizontal=0;startSize=0;swimlaneHead=0;swimlaneBody=0;fillColor=none;collapsible=0;dropTarget=0;points=[[0,0.5],[1,0.5]];portConstraint=eastwest;top=0;left=0;right=0;bottom=0;" vertex="1" parent="LFf5BjODRrcRlvRY0vxa-1">
          <mxGeometry y="90" width="180" height="30" as="geometry" />
        </mxCell>
        <mxCell id="LFf5BjODRrcRlvRY0vxa-9" value="" style="shape=partialRectangle;connectable=0;fillColor=none;top=0;left=0;bottom=0;right=0;editable=1;overflow=hidden;whiteSpace=wrap;html=1;" vertex="1" parent="LFf5BjODRrcRlvRY0vxa-8">
          <mxGeometry width="30" height="30" as="geometry">
            <mxRectangle width="30" height="30" as="alternateBounds" />
          </mxGeometry>
        </mxCell>
        <mxCell id="LFf5BjODRrcRlvRY0vxa-10" value="키" style="shape=partialRectangle;connectable=0;fillColor=none;top=0;left=0;bottom=0;right=0;align=left;spacingLeft=6;overflow=hidden;whiteSpace=wrap;html=1;" vertex="1" parent="LFf5BjODRrcRlvRY0vxa-8">
          <mxGeometry x="30" width="150" height="30" as="geometry">
            <mxRectangle width="150" height="30" as="alternateBounds" />
          </mxGeometry>
        </mxCell>
        <mxCell id="LFf5BjODRrcRlvRY0vxa-11" value="" style="shape=tableRow;horizontal=0;startSize=0;swimlaneHead=0;swimlaneBody=0;fillColor=none;collapsible=0;dropTarget=0;points=[[0,0.5],[1,0.5]];portConstraint=eastwest;top=0;left=0;right=0;bottom=0;" vertex="1" parent="LFf5BjODRrcRlvRY0vxa-1">
          <mxGeometry y="120" width="180" height="30" as="geometry" />
        </mxCell>
        <mxCell id="LFf5BjODRrcRlvRY0vxa-12" value="FK" style="shape=partialRectangle;connectable=0;fillColor=none;top=0;left=0;bottom=0;right=0;editable=1;overflow=hidden;whiteSpace=wrap;html=1;" vertex="1" parent="LFf5BjODRrcRlvRY0vxa-11">
          <mxGeometry width="30" height="30" as="geometry">
            <mxRectangle width="30" height="30" as="alternateBounds" />
          </mxGeometry>
        </mxCell>
        <mxCell id="LFf5BjODRrcRlvRY0vxa-13" value="학과코드" style="shape=partialRectangle;connectable=0;fillColor=none;top=0;left=0;bottom=0;right=0;align=left;spacingLeft=6;overflow=hidden;whiteSpace=wrap;html=1;" vertex="1" parent="LFf5BjODRrcRlvRY0vxa-11">
          <mxGeometry x="30" width="150" height="30" as="geometry">
            <mxRectangle width="150" height="30" as="alternateBounds" />
          </mxGeometry>
        </mxCell>
        <mxCell id="I9iwfW9CK8SMriC_ce9E-1" value="교수" style="shape=table;startSize=30;container=1;collapsible=1;childLayout=tableLayout;fixedRows=1;rowLines=0;fontStyle=1;align=center;resizeLast=1;html=1;" vertex="1" parent="1">
          <mxGeometry x="340" y="250" width="180" height="120" as="geometry" />
        </mxCell>
        <mxCell id="I9iwfW9CK8SMriC_ce9E-2" value="" style="shape=tableRow;horizontal=0;startSize=0;swimlaneHead=0;swimlaneBody=0;fillColor=none;collapsible=0;dropTarget=0;points=[[0,0.5],[1,0.5]];portConstraint=eastwest;top=0;left=0;right=0;bottom=1;" vertex="1" parent="I9iwfW9CK8SMriC_ce9E-1">
          <mxGeometry y="30" width="180" height="30" as="geometry" />
        </mxCell>
        <mxCell id="I9iwfW9CK8SMriC_ce9E-3" value="PK" style="shape=partialRectangle;connectable=0;fillColor=none;top=0;left=0;bottom=0;right=0;fontStyle=1;overflow=hidden;whiteSpace=wrap;html=1;" vertex="1" parent="I9iwfW9CK8SMriC_ce9E-2">
          <mxGeometry width="30" height="30" as="geometry">
            <mxRectangle width="30" height="30" as="alternateBounds" />
          </mxGeometry>
        </mxCell>
        <mxCell id="I9iwfW9CK8SMriC_ce9E-4" value="교수코드" style="shape=partialRectangle;connectable=0;fillColor=none;top=0;left=0;bottom=0;right=0;align=left;spacingLeft=6;fontStyle=5;overflow=hidden;whiteSpace=wrap;html=1;" vertex="1" parent="I9iwfW9CK8SMriC_ce9E-2">
          <mxGeometry x="30" width="150" height="30" as="geometry">
            <mxRectangle width="150" height="30" as="alternateBounds" />
          </mxGeometry>
        </mxCell>
        <mxCell id="I9iwfW9CK8SMriC_ce9E-5" value="" style="shape=tableRow;horizontal=0;startSize=0;swimlaneHead=0;swimlaneBody=0;fillColor=none;collapsible=0;dropTarget=0;points=[[0,0.5],[1,0.5]];portConstraint=eastwest;top=0;left=0;right=0;bottom=0;" vertex="1" parent="I9iwfW9CK8SMriC_ce9E-1">
          <mxGeometry y="60" width="180" height="30" as="geometry" />
        </mxCell>
        <mxCell id="I9iwfW9CK8SMriC_ce9E-6" value="" style="shape=partialRectangle;connectable=0;fillColor=none;top=0;left=0;bottom=0;right=0;editable=1;overflow=hidden;whiteSpace=wrap;html=1;" vertex="1" parent="I9iwfW9CK8SMriC_ce9E-5">
          <mxGeometry width="30" height="30" as="geometry">
            <mxRectangle width="30" height="30" as="alternateBounds" />
          </mxGeometry>
        </mxCell>
        <mxCell id="I9iwfW9CK8SMriC_ce9E-7" value="교수이름" style="shape=partialRectangle;connectable=0;fillColor=none;top=0;left=0;bottom=0;right=0;align=left;spacingLeft=6;overflow=hidden;whiteSpace=wrap;html=1;" vertex="1" parent="I9iwfW9CK8SMriC_ce9E-5">
          <mxGeometry x="30" width="150" height="30" as="geometry">
            <mxRectangle width="150" height="30" as="alternateBounds" />
          </mxGeometry>
        </mxCell>
        <mxCell id="I9iwfW9CK8SMriC_ce9E-11" value="" style="shape=tableRow;horizontal=0;startSize=0;swimlaneHead=0;swimlaneBody=0;fillColor=none;collapsible=0;dropTarget=0;points=[[0,0.5],[1,0.5]];portConstraint=eastwest;top=0;left=0;right=0;bottom=0;" vertex="1" parent="I9iwfW9CK8SMriC_ce9E-1">
          <mxGeometry y="90" width="180" height="30" as="geometry" />
        </mxCell>
        <mxCell id="I9iwfW9CK8SMriC_ce9E-12" value="FK" style="shape=partialRectangle;connectable=0;fillColor=none;top=0;left=0;bottom=0;right=0;editable=1;overflow=hidden;whiteSpace=wrap;html=1;" vertex="1" parent="I9iwfW9CK8SMriC_ce9E-11">
          <mxGeometry width="30" height="30" as="geometry">
            <mxRectangle width="30" height="30" as="alternateBounds" />
          </mxGeometry>
        </mxCell>
        <mxCell id="I9iwfW9CK8SMriC_ce9E-13" value="학과코드" style="shape=partialRectangle;connectable=0;fillColor=none;top=0;left=0;bottom=0;right=0;align=left;spacingLeft=6;overflow=hidden;whiteSpace=wrap;html=1;" vertex="1" parent="I9iwfW9CK8SMriC_ce9E-11">
          <mxGeometry x="30" width="150" height="30" as="geometry">
            <mxRectangle width="150" height="30" as="alternateBounds" />
          </mxGeometry>
        </mxCell>
        <mxCell id="H_UAl5-estD6wiqVyz57-1" value="수강" style="shape=table;startSize=30;container=1;collapsible=1;childLayout=tableLayout;fixedRows=1;rowLines=0;fontStyle=1;align=center;resizeLast=1;html=1;" vertex="1" parent="1">
          <mxGeometry x="610" y="20" width="180" height="180" as="geometry" />
        </mxCell>
        <mxCell id="H_UAl5-estD6wiqVyz57-2" value="" style="shape=tableRow;horizontal=0;startSize=0;swimlaneHead=0;swimlaneBody=0;fillColor=none;collapsible=0;dropTarget=0;points=[[0,0.5],[1,0.5]];portConstraint=eastwest;top=0;left=0;right=0;bottom=1;" vertex="1" parent="H_UAl5-estD6wiqVyz57-1">
          <mxGeometry y="30" width="180" height="30" as="geometry" />
        </mxCell>
        <mxCell id="H_UAl5-estD6wiqVyz57-3" value="AK" style="shape=partialRectangle;connectable=0;fillColor=none;top=0;left=0;bottom=0;right=0;fontStyle=1;overflow=hidden;whiteSpace=wrap;html=1;" vertex="1" parent="H_UAl5-estD6wiqVyz57-2">
          <mxGeometry width="30" height="30" as="geometry">
            <mxRectangle width="30" height="30" as="alternateBounds" />
          </mxGeometry>
        </mxCell>
        <mxCell id="H_UAl5-estD6wiqVyz57-4" value="수강번호" style="shape=partialRectangle;connectable=0;fillColor=none;top=0;left=0;bottom=0;right=0;align=left;spacingLeft=6;fontStyle=5;overflow=hidden;whiteSpace=wrap;html=1;" vertex="1" parent="H_UAl5-estD6wiqVyz57-2">
          <mxGeometry x="30" width="150" height="30" as="geometry">
            <mxRectangle width="150" height="30" as="alternateBounds" />
          </mxGeometry>
        </mxCell>
        <mxCell id="H_UAl5-estD6wiqVyz57-5" value="" style="shape=tableRow;horizontal=0;startSize=0;swimlaneHead=0;swimlaneBody=0;fillColor=none;collapsible=0;dropTarget=0;points=[[0,0.5],[1,0.5]];portConstraint=eastwest;top=0;left=0;right=0;bottom=0;" vertex="1" parent="H_UAl5-estD6wiqVyz57-1">
          <mxGeometry y="60" width="180" height="30" as="geometry" />
        </mxCell>
        <mxCell id="H_UAl5-estD6wiqVyz57-6" value="" style="shape=partialRectangle;connectable=0;fillColor=none;top=0;left=0;bottom=0;right=0;editable=1;overflow=hidden;whiteSpace=wrap;html=1;" vertex="1" parent="H_UAl5-estD6wiqVyz57-5">
          <mxGeometry width="30" height="30" as="geometry">
            <mxRectangle width="30" height="30" as="alternateBounds" />
          </mxGeometry>
        </mxCell>
        <mxCell id="H_UAl5-estD6wiqVyz57-7" value="수강일자" style="shape=partialRectangle;connectable=0;fillColor=none;top=0;left=0;bottom=0;right=0;align=left;spacingLeft=6;overflow=hidden;whiteSpace=wrap;html=1;" vertex="1" parent="H_UAl5-estD6wiqVyz57-5">
          <mxGeometry x="30" width="150" height="30" as="geometry">
            <mxRectangle width="150" height="30" as="alternateBounds" />
          </mxGeometry>
        </mxCell>
        <mxCell id="H_UAl5-estD6wiqVyz57-8" value="" style="shape=tableRow;horizontal=0;startSize=0;swimlaneHead=0;swimlaneBody=0;fillColor=none;collapsible=0;dropTarget=0;points=[[0,0.5],[1,0.5]];portConstraint=eastwest;top=0;left=0;right=0;bottom=0;" vertex="1" parent="H_UAl5-estD6wiqVyz57-1">
          <mxGeometry y="90" width="180" height="30" as="geometry" />
        </mxCell>
        <mxCell id="H_UAl5-estD6wiqVyz57-9" value="" style="shape=partialRectangle;connectable=0;fillColor=none;top=0;left=0;bottom=0;right=0;editable=1;overflow=hidden;whiteSpace=wrap;html=1;" vertex="1" parent="H_UAl5-estD6wiqVyz57-8">
          <mxGeometry width="30" height="30" as="geometry">
            <mxRectangle width="30" height="30" as="alternateBounds" />
          </mxGeometry>
        </mxCell>
        <mxCell id="H_UAl5-estD6wiqVyz57-10" value="학점" style="shape=partialRectangle;connectable=0;fillColor=none;top=0;left=0;bottom=0;right=0;align=left;spacingLeft=6;overflow=hidden;whiteSpace=wrap;html=1;" vertex="1" parent="H_UAl5-estD6wiqVyz57-8">
          <mxGeometry x="30" width="150" height="30" as="geometry">
            <mxRectangle width="150" height="30" as="alternateBounds" />
          </mxGeometry>
        </mxCell>
        <mxCell id="H_UAl5-estD6wiqVyz57-11" value="" style="shape=tableRow;horizontal=0;startSize=0;swimlaneHead=0;swimlaneBody=0;fillColor=none;collapsible=0;dropTarget=0;points=[[0,0.5],[1,0.5]];portConstraint=eastwest;top=0;left=0;right=0;bottom=0;" vertex="1" parent="H_UAl5-estD6wiqVyz57-1">
          <mxGeometry y="120" width="180" height="30" as="geometry" />
        </mxCell>
        <mxCell id="H_UAl5-estD6wiqVyz57-12" value="FK" style="shape=partialRectangle;connectable=0;fillColor=none;top=0;left=0;bottom=0;right=0;editable=1;overflow=hidden;whiteSpace=wrap;html=1;" vertex="1" parent="H_UAl5-estD6wiqVyz57-11">
          <mxGeometry width="30" height="30" as="geometry">
            <mxRectangle width="30" height="30" as="alternateBounds" />
          </mxGeometry>
        </mxCell>
        <mxCell id="H_UAl5-estD6wiqVyz57-13" value="학번(PK)" style="shape=partialRectangle;connectable=0;fillColor=none;top=0;left=0;bottom=0;right=0;align=left;spacingLeft=6;overflow=hidden;whiteSpace=wrap;html=1;" vertex="1" parent="H_UAl5-estD6wiqVyz57-11">
          <mxGeometry x="30" width="150" height="30" as="geometry">
            <mxRectangle width="150" height="30" as="alternateBounds" />
          </mxGeometry>
        </mxCell>
        <mxCell id="W6AxIm_dCrQZKh1MFrYo-1" value="" style="shape=tableRow;horizontal=0;startSize=0;swimlaneHead=0;swimlaneBody=0;fillColor=none;collapsible=0;dropTarget=0;points=[[0,0.5],[1,0.5]];portConstraint=eastwest;top=0;left=0;right=0;bottom=0;" vertex="1" parent="H_UAl5-estD6wiqVyz57-1">
          <mxGeometry y="150" width="180" height="30" as="geometry" />
        </mxCell>
        <mxCell id="W6AxIm_dCrQZKh1MFrYo-2" value="FK" style="shape=partialRectangle;connectable=0;fillColor=none;top=0;left=0;bottom=0;right=0;editable=1;overflow=hidden;whiteSpace=wrap;html=1;" vertex="1" parent="W6AxIm_dCrQZKh1MFrYo-1">
          <mxGeometry width="30" height="30" as="geometry">
            <mxRectangle width="30" height="30" as="alternateBounds" />
          </mxGeometry>
        </mxCell>
        <mxCell id="W6AxIm_dCrQZKh1MFrYo-3" value="과목코드(PK)" style="shape=partialRectangle;connectable=0;fillColor=none;top=0;left=0;bottom=0;right=0;align=left;spacingLeft=6;overflow=hidden;whiteSpace=wrap;html=1;" vertex="1" parent="W6AxIm_dCrQZKh1MFrYo-1">
          <mxGeometry x="30" width="150" height="30" as="geometry">
            <mxRectangle width="150" height="30" as="alternateBounds" />
          </mxGeometry>
        </mxCell>
        <mxCell id="H_UAl5-estD6wiqVyz57-14" value="과목" style="shape=table;startSize=30;container=1;collapsible=1;childLayout=tableLayout;fixedRows=1;rowLines=0;fontStyle=1;align=center;resizeLast=1;html=1;" vertex="1" parent="1">
          <mxGeometry x="610" y="250" width="180" height="180" as="geometry" />
        </mxCell>
        <mxCell id="H_UAl5-estD6wiqVyz57-15" value="" style="shape=tableRow;horizontal=0;startSize=0;swimlaneHead=0;swimlaneBody=0;fillColor=none;collapsible=0;dropTarget=0;points=[[0,0.5],[1,0.5]];portConstraint=eastwest;top=0;left=0;right=0;bottom=1;" vertex="1" parent="H_UAl5-estD6wiqVyz57-14">
          <mxGeometry y="30" width="180" height="30" as="geometry" />
        </mxCell>
        <mxCell id="H_UAl5-estD6wiqVyz57-16" value="PK" style="shape=partialRectangle;connectable=0;fillColor=none;top=0;left=0;bottom=0;right=0;fontStyle=1;overflow=hidden;whiteSpace=wrap;html=1;" vertex="1" parent="H_UAl5-estD6wiqVyz57-15">
          <mxGeometry width="30" height="30" as="geometry">
            <mxRectangle width="30" height="30" as="alternateBounds" />
          </mxGeometry>
        </mxCell>
        <mxCell id="H_UAl5-estD6wiqVyz57-17" value="과목 코드" style="shape=partialRectangle;connectable=0;fillColor=none;top=0;left=0;bottom=0;right=0;align=left;spacingLeft=6;fontStyle=5;overflow=hidden;whiteSpace=wrap;html=1;" vertex="1" parent="H_UAl5-estD6wiqVyz57-15">
          <mxGeometry x="30" width="150" height="30" as="geometry">
            <mxRectangle width="150" height="30" as="alternateBounds" />
          </mxGeometry>
        </mxCell>
        <mxCell id="H_UAl5-estD6wiqVyz57-18" value="" style="shape=tableRow;horizontal=0;startSize=0;swimlaneHead=0;swimlaneBody=0;fillColor=none;collapsible=0;dropTarget=0;points=[[0,0.5],[1,0.5]];portConstraint=eastwest;top=0;left=0;right=0;bottom=0;" vertex="1" parent="H_UAl5-estD6wiqVyz57-14">
          <mxGeometry y="60" width="180" height="30" as="geometry" />
        </mxCell>
        <mxCell id="H_UAl5-estD6wiqVyz57-19" value="" style="shape=partialRectangle;connectable=0;fillColor=none;top=0;left=0;bottom=0;right=0;editable=1;overflow=hidden;whiteSpace=wrap;html=1;" vertex="1" parent="H_UAl5-estD6wiqVyz57-18">
          <mxGeometry width="30" height="30" as="geometry">
            <mxRectangle width="30" height="30" as="alternateBounds" />
          </mxGeometry>
        </mxCell>
        <mxCell id="H_UAl5-estD6wiqVyz57-20" value="과목명" style="shape=partialRectangle;connectable=0;fillColor=none;top=0;left=0;bottom=0;right=0;align=left;spacingLeft=6;overflow=hidden;whiteSpace=wrap;html=1;" vertex="1" parent="H_UAl5-estD6wiqVyz57-18">
          <mxGeometry x="30" width="150" height="30" as="geometry">
            <mxRectangle width="150" height="30" as="alternateBounds" />
          </mxGeometry>
        </mxCell>
        <mxCell id="H_UAl5-estD6wiqVyz57-21" value="" style="shape=tableRow;horizontal=0;startSize=0;swimlaneHead=0;swimlaneBody=0;fillColor=none;collapsible=0;dropTarget=0;points=[[0,0.5],[1,0.5]];portConstraint=eastwest;top=0;left=0;right=0;bottom=0;" vertex="1" parent="H_UAl5-estD6wiqVyz57-14">
          <mxGeometry y="90" width="180" height="30" as="geometry" />
        </mxCell>
        <mxCell id="H_UAl5-estD6wiqVyz57-22" value="" style="shape=partialRectangle;connectable=0;fillColor=none;top=0;left=0;bottom=0;right=0;editable=1;overflow=hidden;whiteSpace=wrap;html=1;" vertex="1" parent="H_UAl5-estD6wiqVyz57-21">
          <mxGeometry width="30" height="30" as="geometry">
            <mxRectangle width="30" height="30" as="alternateBounds" />
          </mxGeometry>
        </mxCell>
        <mxCell id="H_UAl5-estD6wiqVyz57-23" value="시작일" style="shape=partialRectangle;connectable=0;fillColor=none;top=0;left=0;bottom=0;right=0;align=left;spacingLeft=6;overflow=hidden;whiteSpace=wrap;html=1;" vertex="1" parent="H_UAl5-estD6wiqVyz57-21">
          <mxGeometry x="30" width="150" height="30" as="geometry">
            <mxRectangle width="150" height="30" as="alternateBounds" />
          </mxGeometry>
        </mxCell>
        <mxCell id="H_UAl5-estD6wiqVyz57-24" value="" style="shape=tableRow;horizontal=0;startSize=0;swimlaneHead=0;swimlaneBody=0;fillColor=none;collapsible=0;dropTarget=0;points=[[0,0.5],[1,0.5]];portConstraint=eastwest;top=0;left=0;right=0;bottom=0;" vertex="1" parent="H_UAl5-estD6wiqVyz57-14">
          <mxGeometry y="120" width="180" height="30" as="geometry" />
        </mxCell>
        <mxCell id="H_UAl5-estD6wiqVyz57-25" value="" style="shape=partialRectangle;connectable=0;fillColor=none;top=0;left=0;bottom=0;right=0;editable=1;overflow=hidden;whiteSpace=wrap;html=1;" vertex="1" parent="H_UAl5-estD6wiqVyz57-24">
          <mxGeometry width="30" height="30" as="geometry">
            <mxRectangle width="30" height="30" as="alternateBounds" />
          </mxGeometry>
        </mxCell>
        <mxCell id="H_UAl5-estD6wiqVyz57-26" value="종료일" style="shape=partialRectangle;connectable=0;fillColor=none;top=0;left=0;bottom=0;right=0;align=left;spacingLeft=6;overflow=hidden;whiteSpace=wrap;html=1;" vertex="1" parent="H_UAl5-estD6wiqVyz57-24">
          <mxGeometry x="30" width="150" height="30" as="geometry">
            <mxRectangle width="150" height="30" as="alternateBounds" />
          </mxGeometry>
        </mxCell>
        <mxCell id="uBsWaDoesFM0ZAM9va2L-1" value="" style="shape=tableRow;horizontal=0;startSize=0;swimlaneHead=0;swimlaneBody=0;fillColor=none;collapsible=0;dropTarget=0;points=[[0,0.5],[1,0.5]];portConstraint=eastwest;top=0;left=0;right=0;bottom=0;" vertex="1" parent="H_UAl5-estD6wiqVyz57-14">
          <mxGeometry y="150" width="180" height="30" as="geometry" />
        </mxCell>
        <mxCell id="uBsWaDoesFM0ZAM9va2L-2" value="FK" style="shape=partialRectangle;connectable=0;fillColor=none;top=0;left=0;bottom=0;right=0;editable=1;overflow=hidden;whiteSpace=wrap;html=1;" vertex="1" parent="uBsWaDoesFM0ZAM9va2L-1">
          <mxGeometry width="30" height="30" as="geometry">
            <mxRectangle width="30" height="30" as="alternateBounds" />
          </mxGeometry>
        </mxCell>
        <mxCell id="uBsWaDoesFM0ZAM9va2L-3" value="교수코드" style="shape=partialRectangle;connectable=0;fillColor=none;top=0;left=0;bottom=0;right=0;align=left;spacingLeft=6;overflow=hidden;whiteSpace=wrap;html=1;" vertex="1" parent="uBsWaDoesFM0ZAM9va2L-1">
          <mxGeometry x="30" width="150" height="30" as="geometry">
            <mxRectangle width="150" height="30" as="alternateBounds" />
          </mxGeometry>
        </mxCell>
        <mxCell id="exIepQmm7DSEhV40Zn1D-1" value="" style="edgeStyle=entityRelationEdgeStyle;fontSize=12;html=1;endArrow=ERoneToMany;startArrow=ERmandOne;rounded=0;" edge="1" parent="1" source="Z4l7oAfXVn5_fqK4r49j-1" target="LFf5BjODRrcRlvRY0vxa-1">
          <mxGeometry width="100" height="100" relative="1" as="geometry">
            <mxPoint x="200" y="350" as="sourcePoint" />
            <mxPoint x="300" y="250" as="targetPoint" />
          </mxGeometry>
        </mxCell>
        <mxCell id="exIepQmm7DSEhV40Zn1D-2" value="" style="edgeStyle=entityRelationEdgeStyle;fontSize=12;html=1;endArrow=ERoneToMany;startArrow=ERmandOne;rounded=0;" edge="1" parent="1" source="Z4l7oAfXVn5_fqK4r49j-1" target="I9iwfW9CK8SMriC_ce9E-1">
          <mxGeometry width="100" height="100" relative="1" as="geometry">
            <mxPoint x="260" y="215" as="sourcePoint" />
            <mxPoint x="350" y="135" as="targetPoint" />
          </mxGeometry>
        </mxCell>
        <mxCell id="exIepQmm7DSEhV40Zn1D-3" value="" style="edgeStyle=entityRelationEdgeStyle;fontSize=12;html=1;endArrow=ERoneToMany;startArrow=ERmandOne;rounded=0;" edge="1" parent="1" source="LFf5BjODRrcRlvRY0vxa-1" target="H_UAl5-estD6wiqVyz57-1">
          <mxGeometry width="100" height="100" relative="1" as="geometry">
            <mxPoint x="270" y="225" as="sourcePoint" />
            <mxPoint x="360" y="145" as="targetPoint" />
          </mxGeometry>
        </mxCell>
        <mxCell id="exIepQmm7DSEhV40Zn1D-4" value="" style="edgeStyle=entityRelationEdgeStyle;fontSize=12;html=1;endArrow=ERoneToMany;startArrow=ERmandOne;rounded=0;" edge="1" parent="1" source="H_UAl5-estD6wiqVyz57-14" target="H_UAl5-estD6wiqVyz57-1">
          <mxGeometry width="100" height="100" relative="1" as="geometry">
            <mxPoint x="280" y="235" as="sourcePoint" />
            <mxPoint x="370" y="155" as="targetPoint" />
          </mxGeometry>
        </mxCell>
        <mxCell id="exIepQmm7DSEhV40Zn1D-5" value="" style="edgeStyle=entityRelationEdgeStyle;fontSize=12;html=1;endArrow=ERoneToMany;startArrow=ERmandOne;rounded=0;" edge="1" parent="1" source="I9iwfW9CK8SMriC_ce9E-1" target="H_UAl5-estD6wiqVyz57-14">
          <mxGeometry width="100" height="100" relative="1" as="geometry">
            <mxPoint x="290" y="245" as="sourcePoint" />
            <mxPoint x="380" y="165" as="targetPoint" />
          </mxGeometry>
        </mxCell>
      </root>
    </mxGraphModel>
  </diagram>
</mxfile>
